<svg width="40" height="40" viewBox="0 0 40 40" fill="none" xmlns="http://www.w3.org/2000/svg">
<rect x="0.640137" width="38.4" height="40" rx="8" fill="#F9AA01"/>
<path d="M20.7723 7.52419C19.9914 6.82527 18.7231 6.82527 17.9421 7.52419L7.94606 16.4704C7.16512 17.1693 7.16512 18.3044 7.94606 19.0033C8.72701 19.7023 9.99526 19.7023 10.7762 19.0033L17.3612 13.1044V30.2589C17.3612 31.2485 18.2545 32.0481 19.3604 32.0481C20.4662 32.0481 21.3596 31.2485 21.3596 30.2589V13.1044L27.9445 18.9977C28.7254 19.6967 29.9937 19.6967 30.7747 18.9977C31.5556 18.2988 31.5556 17.1638 30.7747 16.4648L20.7786 7.5186L20.7723 7.52419Z" fill="#1B1426"/>
</svg>
