<svg width="39" height="40" viewBox="0 0 39 40" fill="none" xmlns="http://www.w3.org/2000/svg">
<rect x="0.320312" width="38.4" height="40" rx="8" fill="#F9AA01"/>
<path d="M30.2862 7.01367H9.70941C8.76656 7.01367 8.00049 7.82438 8.00049 8.8196V30.2559C8.00049 31.2511 8.76656 32.0618 9.70941 32.0618H30.2862C31.229 32.0618 32.0005 31.2511 32.0005 30.2559V8.8196C32.0005 7.82438 31.229 7.01367 30.2862 7.01367ZM15.2541 28.4835H11.6969V16.5297H15.2594V28.4835H15.2541ZM13.4755 14.8971C12.3344 14.8971 11.413 13.9299 11.413 12.7446C11.413 11.5592 12.3344 10.592 13.4755 10.592C14.6112 10.592 15.538 11.5592 15.538 12.7446C15.538 13.9355 14.6166 14.8971 13.4755 14.8971ZM28.588 28.4835H25.0309V22.6687C25.0309 21.2821 25.0041 19.4986 23.1826 19.4986C21.329 19.4986 21.0452 21.0082 21.0452 22.5681V28.4835H17.488V16.5297H20.9005V18.1623H20.9487C21.4255 17.223 22.588 16.2334 24.3184 16.2334C27.9184 16.2334 28.588 18.7102 28.588 21.9307V28.4835Z" fill="#1B1426"/>
</svg>
