<svg width="39" height="40" viewBox="0 0 39 40" fill="none" xmlns="http://www.w3.org/2000/svg">
<rect x="0.560059" width="38.4" height="40" rx="8" fill="#F9AA01"/>
<path d="M20.2429 13.1157C16.8377 13.1157 14.091 15.983 14.091 19.5377C14.091 23.0926 16.8377 25.9598 20.2429 25.9598C23.6481 25.9598 26.3948 23.0926 26.3948 19.5377C26.3948 15.983 23.6481 13.1157 20.2429 13.1157ZM20.2429 23.713C18.0423 23.713 16.2434 21.8405 16.2434 19.5377C16.2434 17.2349 18.037 15.3626 20.2429 15.3626C22.4488 15.3626 24.2425 17.2349 24.2425 19.5377C24.2425 21.8405 22.4434 23.713 20.2429 23.713ZM28.0814 12.853C28.0814 13.6858 27.4389 14.3509 26.6465 14.3509C25.8488 14.3509 25.2116 13.6802 25.2116 12.853C25.2116 12.0258 25.854 11.3551 26.6465 11.3551C27.4389 11.3551 28.0814 12.0258 28.0814 12.853ZM32.156 14.3733C32.0648 12.3668 31.6258 10.5894 30.2177 9.125C28.815 7.66063 27.1123 7.20231 25.1902 7.1017C23.2091 6.98433 17.2714 6.98433 15.2903 7.1017C13.3735 7.19672 11.6709 7.65504 10.2628 9.11941C8.85462 10.5838 8.42094 12.3612 8.32456 14.3677C8.21213 16.4357 8.21213 22.6342 8.32456 24.7023C8.41558 26.7088 8.85462 28.4862 10.2628 29.9506C11.6709 31.4149 13.3682 31.8733 15.2903 31.9739C17.2714 32.0912 23.2091 32.0912 25.1902 31.9739C27.1123 31.8788 28.815 31.4205 30.2177 29.9506C31.6205 28.4862 32.0596 26.7088 32.156 24.7023C32.2684 22.6342 32.2684 16.4413 32.156 14.3733ZM29.5966 26.9212C29.179 28.0167 28.3705 28.8607 27.3157 29.3022C25.7362 29.9562 21.9884 29.8052 20.2429 29.8052C18.4975 29.8052 14.7442 29.9506 13.1701 29.3022C12.1207 28.8663 11.3122 28.0223 10.8892 26.9212C10.2628 25.2724 10.4073 21.3598 10.4073 19.5377C10.4073 17.7156 10.2681 13.7976 10.8892 12.1544C11.3068 11.0589 12.1153 10.2149 13.1701 9.77336C14.7496 9.11941 18.4975 9.27033 20.2429 9.27033C21.9884 9.27033 25.7416 9.125 27.3157 9.77336C28.3652 10.2093 29.1736 11.0533 29.5966 12.1544C30.2231 13.8032 30.0785 17.7156 30.0785 19.5377C30.0785 21.3598 30.2231 25.278 29.5966 26.9212Z" fill="#1B1426"/>
</svg>
