<svg width="22" height="22" viewBox="0 0 22 22" fill="none" xmlns="http://www.w3.org/2000/svg">
<path d="M5.45068 1.04067C5.98386 0.895004 6.53952 1.15155 6.77551 1.64351L6.80164 1.70621L8.44219 5.64354C8.6359 6.10788 8.50239 6.64351 8.11151 6.96307L6.08954 8.61591L5.78682 8.86337L5.954 9.21683C7.36922 12.2087 9.79118 14.6307 12.7831 16.0459L13.1361 16.2129L13.3836 15.9108L15.0406 13.8888L15.0424 13.8867C15.3567 13.4987 15.8947 13.3634 16.3603 13.5576L20.2978 15.1983L20.2989 15.1987C20.8281 15.4178 21.1106 15.9954 20.9593 16.549L19.9753 20.157C19.9753 20.1568 19.9753 20.1572 19.9753 20.157C19.8376 20.6551 19.3856 20.9999 18.8742 20.9999C9.00351 20.9999 1 12.9964 1 3.12575C1 2.61436 1.34412 2.16251 1.84222 2.02479C1.842 2.02485 1.84243 2.02473 1.84222 2.02479L5.45068 1.04067Z" fill="#FAFAFA"/>
<path d="M19.9753 20.157L20.9593 16.549C21.1106 15.9954 20.8281 15.4178 20.2989 15.1987L20.2978 15.1983L16.3603 13.5576C15.8947 13.3634 15.3567 13.4987 15.0424 13.8867L15.0406 13.8888L13.3836 15.9108L13.1361 16.2129L12.7831 16.0459C9.79118 14.6307 7.36922 12.2087 5.954 9.21683L5.78682 8.86337L6.08954 8.61591L8.11151 6.96307C8.50239 6.64351 8.6359 6.10788 8.44219 5.64354L6.80164 1.70621L6.77551 1.64351C6.53952 1.15155 5.98386 0.895004 5.45068 1.04067L1.84222 2.02479M19.9753 20.157C19.9753 20.1572 19.9753 20.1568 19.9753 20.157ZM19.9753 20.157C19.8376 20.6551 19.3856 20.9999 18.8742 20.9999C9.00351 20.9999 1 12.9964 1 3.12575C1 2.61436 1.34412 2.16251 1.84222 2.02479M1.84222 2.02479C1.84243 2.02473 1.842 2.02485 1.84222 2.02479Z" stroke="black"/>
</svg>
